<?xml version="1.0" standalone="no"?>
<!DOCTYPE svg PUBLIC "-//W3C//DTD SVG 20010904//EN"
 "http://www.w3.org/TR/2001/REC-SVG-20010904/DTD/svg10.dtd">
<svg version="1.0" xmlns="http://www.w3.org/2000/svg"
 width="800.000000pt" height="600.000000pt" viewBox="0 0 800.000000 600.000000"
 preserveAspectRatio="xMidYMid meet">

<g transform="translate(0.000000,600.000000) scale(0.100000,-0.100000)"
fill="#000000" stroke="none">
<path d="M705 5550 c-33 -11 -139 -65 -235 -120 -212 -122 -279 -145 -391
-137 l-79 6 0 -2649 0 -2650 4000 0 4000 0 0 2786 0 2787 -53 -6 c-66 -7 -148
-41 -274 -114 -170 -99 -216 -122 -282 -143 -138 -44 -224 -22 -471 120 -190
109 -270 140 -360 140 -89 0 -166 -29 -351 -135 -193 -110 -278 -144 -360
-145 -101 0 -168 27 -414 170 -190 110 -292 132 -426 90 -35 -10 -140 -63
-234 -116 -192 -110 -275 -144 -355 -144 -104 0 -157 22 -445 184 -213 120
-316 126 -503 32 -40 -20 -101 -54 -137 -76 -225 -138 -344 -166 -486 -116
-36 13 -142 67 -235 120 -200 115 -273 141 -377 134 -84 -6 -153 -33 -294
-115 -170 -99 -216 -122 -282 -143 -123 -39 -228 -20 -386 71 -229 131 -270
153 -327 170 -76 24 -166 23 -243 -1z"/>
</g>
</svg>
